<svg version="1.0" xmlns="http://www.w3.org/2000/svg" width="1505.333" height="224" viewBox="0 0 1129 168"><path d="M792 79.9V160l16.3-.2 16.2-.3.5-43.1.5-43.1 49.8 46.9c27.3 25.7 49.9 46.8 50.2 46.8.3 0 .5-35.6.5-79V9h-33l-.2 42.9-.3 42.8-26.5-25c-14.6-13.8-37.2-35.1-50.2-47.4L792-.2v80.1zm122-.4c0 33.3-.3 60.5-.7 60.4-.5 0-23.1-21.1-50.3-46.8l-49.5-46.7-.3 51.3-.2 51.3h-9V26.7l7.8 7.4c19 18.4 91.5 86.4 92.3 86.7.5.2.9-21.5.9-50.7V19h9v60.5zM630.1 79.2c-21.1 43.1-38.6 78.8-38.8 79.5-.4 1 3.3 1.3 17.2 1.3h17.6l8-16.5 8.1-16.5h25.3c19 0 25.5.3 26.2 1.3.5.6 4 8.1 7.8 16.5l6.9 15.2h17.9c10.8 0 17.7-.4 17.5-.9C742.5 155.4 669.4 1 668.9 1c-.3 0-17.8 35.2-38.8 78.2zM697 87c15 31.6 27.4 58.3 27.7 59.3.5 1.6 0 1.8-4.2 1.5l-4.8-.3-7.1-15.5-7.2-15.5-33.5-.3-33.6-.2-7.6 16-7.6 16h-4.7c-3.3 0-4.5-.4-4.1-1.3 2.8-7.3 58.2-118.6 58.8-118 .4.4 13 26.7 27.9 58.3z"/><path d="M653.1 76.6c-8.4 17.4-15.1 31.8-14.8 32 .2.2 13.7.3 30 .2l29.6-.3-14.4-31.4c-7.9-17.2-14.6-31.5-14.8-31.7-.2-.2-7.2 13.8-15.6 31.2zm25.9 20c0 1.1-2.4 1.4-11 1.4-9.2 0-11-.3-11-1.5 0-.9 2.5-6.6 5.6-12.8l5.7-11.2 5.3 11.4c3 6.2 5.4 12 5.4 12.7zM1042.1 23.1c-5.9 12.3-23.3 47.8-38.5 78.8S976 158.6 976 159.1s7.8.9 17.4.9h17.4l8.1-16.5 8-16.5 25.7.2 25.6.3 7.3 16 7.2 16 17.6.3c12.4.2 17.7-.1 17.7-.9 0-1.3-72.9-156-74.1-157.3-.5-.6-5.5 8.6-11.8 21.5zm40.4 65.9c15.1 32 27.5 58.4 27.5 58.6 0 .2-2.2.4-4.8.4h-4.8l-7.1-15.8-7.1-15.7-33.6-.3-33.6-.2-7.7 16-7.6 16h-9.6l15.1-30.8c8.3-16.9 21.5-44 29.5-60.2 11.1-22.7 14.6-29.1 15.4-27.9.5.9 13.3 27.9 28.4 59.9z"/><path d="M1051.1 48.7c-5.2 10.2-28.1 58.6-28.1 59.4 0 .5 13.1.9 29.5.9 16.2 0 29.5-.4 29.5-.8 0-.5-5.7-13.2-12.6-28.3-6.9-15.1-13.4-29.2-14.4-31.4l-1.7-4-2.2 4.2zm7.7 36.1c2.9 6.4 5.2 12 5.2 12.4 0 .5-5.2.8-11.5.8s-11.5-.2-11.5-.5c0-1.1 11.4-24.5 11.9-24.5.3 0 3 5.3 5.9 11.8zM71 58.8c0 57.7 0 57.6-7.9 65.3-10.2 9.9-25.2 9.2-37-1.7l-5.9-5.5-9.6 11.1C5.3 134.1 1 139.5 1 139.9c0 1.5 11.4 11.7 16.1 14.4 11.2 6.6 26.6 9.1 40.8 6.7 16.4-2.7 32.3-14.5 39.5-29.1 6.3-12.9 6.6-15.4 6.6-72.2V9H71v49.8zm20.8 9.9c-.3 47-.3 47.9-2.6 53.3-5 12.2-15.8 22.3-27.9 26-14.8 4.6-33.1 1.5-43.1-7.4-2.7-2.4-2.7-2.7-.2-5.9l2-2.5 5.1 3.4c7.3 4.9 14.5 6.7 24.3 6.2 10.5-.6 17-3.4 23.1-9.9 5.5-5.9 8-11.2 9.4-19.9.6-3.8 1.1-24 1.1-48.8V21h9.1l-.3 47.7zM173 61.3c0 57.5.1 58.1 6.2 70.7 4.2 8.6 15 19.4 23.9 23.7 23.1 11.3 49.7 7.3 67.5-10.2 7.8-7.6 13.3-17.4 15.3-27.3.7-3.4 1.1-23.4 1.1-57.2V9h-32v46.2c0 48-.6 57.2-4 63.9-4.4 8.5-16 13.3-26.4 11-7.2-1.6-13.3-6.1-15.7-11.6-3.2-7.3-3.8-17.2-3.9-64.3V9h-32v52.3zm21 3.7c0 28.7.4 45.7 1.1 49.2 2.5 11.6 8.9 20.2 18.4 24.8 6 2.9 19.7 3.9 27.2 2.1 7-1.7 14.7-7.3 18.8-13.4 6.1-9.2 6.5-12.8 6.5-62.5V21h10.1l-.3 46.2c-.4 41.1-.6 46.9-2.2 51.8-3.8 11.7-12.9 21.9-24.4 27.3-6.4 3.1-7.2 3.2-19.2 3.2s-12.8-.1-19.3-3.2c-13.8-6.6-23.6-19.8-25.7-34.8-.5-3.9-1-25.8-1-48.8V21h10v44zM360.2 84.2l.3 75.3h82l.3-15.7.3-15.8H393V9h-33l.2 75.2zm20.8-3.7V140h50v8h-59V21h9v59.5zM507.2 84.2l.3 75.3 16.3.3 16.2.2V9h-33l.2 75.2zm20.8.3V148h-9V21h9v63.5z"/></svg>